<svg xmlns="http://www.w3.org/2000/svg" width="51.806" height="52.527" viewBox="0 0 51.806 52.527">
  <g id="Group_3231" data-name="Group 3231" transform="translate(-1259.5 -1457.499)">
    <path id="Path_2312" data-name="Path 2312" d="M7.288,11.12V23.484H2.806A2.306,2.306,0,0,1,.5,21.152l.091-7.786a2.3,2.3,0,0,1,2.322-2.278Z" transform="translate(1260 1464.343)" fill="none" stroke="#323232" stroke-miterlimit="10" stroke-width="2"/>
    <path id="Path_2313" data-name="Path 2313" d="M29.944,23.454V11.089h4.482a2.306,2.306,0,0,1,2.305,2.332l-.091,7.786a2.3,2.3,0,0,1-2.322,2.278Z" transform="translate(1273.574 1464.344)" fill="none" stroke="#323232" stroke-miterlimit="10" stroke-width="2"/>
    <path id="Path_2314" data-name="Path 2314" d="M41.142,15.97S40.126.5,22.221.5C12.851.5,8.077,6.327,5.653,11.882" transform="translate(1262.376 1458)" fill="none" stroke="#323232" stroke-linecap="round" stroke-linejoin="round" stroke-width="2"/>
    <path id="Path_2315" data-name="Path 2315" d="M33.843,23.691v8.221a3.606,3.606,0,0,1-3.607,3.606H21.429" transform="translate(1269.649 1470.153)" fill="none" stroke="#323232" stroke-linecap="round" stroke-linejoin="round" stroke-width="2"/>
    <rect id="Rectangle_26937" data-name="Rectangle 26937" width="12.75" height="6.459" rx="1.263" transform="translate(1278.159 1502.567)" fill="none" stroke="#323232" stroke-linecap="round" stroke-linejoin="round" stroke-width="2"/>
  </g>
</svg>
