<svg xmlns="http://www.w3.org/2000/svg" width="53.97" height="58.598" viewBox="0 0 53.97 58.598">
  <g id="Group_3228" data-name="Group 3228" transform="translate(-170.969 -1437.578) rotate(7)">
    <path id="Path_2303" data-name="Path 2303" d="M19.773,11.374,7.1,42.119A2.394,2.394,0,0,0,8.363,45.23l23.7,10.218a2.393,2.393,0,0,0,3.149-1.257l13.132-30.7a2.4,2.4,0,0,0-.039-1.969L40.755,5.647A2.747,2.747,0,0,0,37.347,4.24L21.18,10.032A2.393,2.393,0,0,0,19.773,11.374Z" transform="translate(345.584 1402.242)" fill="none" stroke="#323232" stroke-linecap="round" stroke-linejoin="round" stroke-width="2"/>
    <ellipse id="Ellipse_69" data-name="Ellipse 69" cx="3.234" cy="3.234" rx="3.234" ry="3.234" transform="translate(377.969 1412.946)" fill="none" stroke="#323232" stroke-linecap="round" stroke-linejoin="round" stroke-width="2"/>
    <ellipse id="Ellipse_70" data-name="Ellipse 70" cx="3.234" cy="3.234" rx="3.234" ry="3.234" transform="matrix(0.899, 0.438, -0.438, 0.899, 366.61, 1425.763)" fill="none" stroke="#323232" stroke-linecap="round" stroke-linejoin="round" stroke-width="2"/>
    <ellipse id="Ellipse_71" data-name="Ellipse 71" cx="3.234" cy="3.234" rx="3.234" ry="3.234" transform="matrix(0.899, 0.438, -0.438, 0.899, 376.568, 1437.236)" fill="none" stroke="#323232" stroke-linecap="round" stroke-linejoin="round" stroke-width="2"/>
    <path id="Path_2304" data-name="Path 2304" d="M2.977,12.241S13.827-3.094,18.521,1.287c1.884,1.758-2.111,5.431-7.571,9.2" transform="translate(378.225 1403)" fill="none" stroke="#323232" stroke-linecap="round" stroke-linejoin="round" stroke-width="2"/>
    <line id="Line_13" data-name="Line 13" x1="8.242" y2="19.717" transform="matrix(0.899, 0.438, -0.438, 0.899, 373.741, 1424.946)" fill="none" stroke="#323232" stroke-linecap="round" stroke-linejoin="round" stroke-width="2"/>
    <path id="Path_2305" data-name="Path 2305" d="M7.907,14.867l5.35,5.627a2.261,2.261,0,0,1,.613,1.75L11.222,53.092a2.259,2.259,0,0,1-2.339,2.064L.5,54.823" transform="translate(385.292 1399.957)" fill="none" stroke="#323232" stroke-linecap="round" stroke-linejoin="round" stroke-width="2"/>
  </g>
</svg>
