<svg xmlns="http://www.w3.org/2000/svg" width="43.735" height="57.228" viewBox="0 0 43.735 57.228">
  <g id="Group_3229" data-name="Group 3229" transform="translate(-807.498 -1412.497)">
    <path id="Path_2306" data-name="Path 2306" d="M10.554,28.789H34.569a2.142,2.142,0,0,0,2.142-2.143V6.654A2.143,2.143,0,0,0,36.227,5.3l-3.281-4.01A2.142,2.142,0,0,0,31.287.5H13.5a2.144,2.144,0,0,0-1.681.814L8.766,5.177A2.14,2.14,0,0,0,8.3,6.517l.107,20.141A2.144,2.144,0,0,0,10.554,28.789Z" transform="translate(809.763 1412.997)" fill="none" stroke="#323232" stroke-miterlimit="10" stroke-width="2"/>
    <line id="Line_14" data-name="Line 14" x2="28.412" transform="translate(817.94 1418.886)" fill="none" stroke="#323232" stroke-miterlimit="10" stroke-width="2"/>
    <line id="Line_15" data-name="Line 15" y2="5.144" transform="translate(831.901 1413.252)" fill="none" stroke="#323232" stroke-miterlimit="10" stroke-width="2"/>
    <rect id="Rectangle_26936" data-name="Rectangle 26936" width="11.512" height="4.653" rx="1.363" transform="translate(826.635 1423.417)" fill="none" stroke="#323232" stroke-miterlimit="10" stroke-width="2"/>
    <path id="Path_2307" data-name="Path 2307" d="M30.281,54.005,41.244,43.133a3.333,3.333,0,1,0-4.731-4.695L28.07,47.212a5.3,5.3,0,0,1-3.817,1.624H18.977A2.428,2.428,0,0,1,16.55,46.41v-.063a2.5,2.5,0,0,1,2.5-2.513h6.184a3.188,3.188,0,0,0,0-6.377H13.7a7.6,7.6,0,0,0-5.417,2.269L1.741,46.374a4.321,4.321,0,0,0,.313,6.349l4.477,3.73a2.821,2.821,0,0,0,2.932.421l1.024-.446a10.4,10.4,0,0,1,3.958-.86L27.1,55.344A4.642,4.642,0,0,0,30.281,54.005Z" transform="translate(807.999 1411.574)" fill="none" stroke="#323232" stroke-miterlimit="10" stroke-width="2"/>
  </g>
</svg>
