<svg xmlns="http://www.w3.org/2000/svg" width="51.766" height="52.527" viewBox="0 0 51.766 52.527">
  <g id="Group_3230" data-name="Group 3230" transform="translate(-1071.5 -1418.703)">
    <path id="Path_2311" data-name="Path 2311" d="M.912,0V-8.4H2.556V0Zm1.32-3.384v-1.5H5.676v1.5Zm0-3.516V-8.4H6.3v1.5Zm6.78,3.924v-1.5h1.68a1.4,1.4,0,0,0,.666-.156,1.217,1.217,0,0,0,.468-.432A1.145,1.145,0,0,0,12-5.688a1.1,1.1,0,0,0-.39-.876,1.48,1.48,0,0,0-1-.336h-1.6V-8.4l1.668-.012a3.273,3.273,0,0,1,1.572.342A2.69,2.69,0,0,1,13.32-7.1,2.608,2.608,0,0,1,13.7-5.688a2.528,2.528,0,0,1-.4,1.41,2.7,2.7,0,0,1-1.1.96,3.546,3.546,0,0,1-1.584.342ZM7.56,0V-8.4H9.2V0Zm4.62,0L10.236-3.372l1.26-.9L14.04,0ZM15.3,0V-8.4h1.644V0Zm1.248,0V-1.5h4.116V0Zm0-3.528V-4.992h3.564v1.464Zm0-3.372V-8.4h4.068v1.5ZM22.368,0V-8.4h1.644V0Zm1.248,0V-1.5h4.116V0Zm0-3.528V-4.992H27.18v1.464Zm0-3.372V-8.4h4.068v1.5Z" transform="translate(1078.088 1459)" fill="#323232"/>
    <path id="Path_2308" data-name="Path 2308" d="M40.74,20.613v29.5a2.018,2.018,0,0,1-2.018,2.018H2.518A2.018,2.018,0,0,1,.5,50.109V13.776a2.019,2.019,0,0,1,2.018-2.018H31.234" transform="translate(1072 1418.103)" fill="none" stroke="#323232" stroke-miterlimit="10" stroke-width="2"/>
    <circle id="Ellipse_72" data-name="Ellipse 72" cx="9.767" cy="9.767" r="9.767" transform="translate(1102.732 1419.703)" fill="none" stroke="#323232" stroke-miterlimit="10" stroke-width="2"/>
    <path id="Path_2309" data-name="Path 2309" d="M41.491,12l2.865,2.6,4.428-5.73" transform="translate(1067.492 1417.385)" fill="none" stroke="#323232" stroke-linecap="round" stroke-linejoin="round" stroke-miterlimit="10" stroke-width="2"/>
    <path id="Path_2310" data-name="Path 2310" d="M17.387,11.614v11.72L22.6,19.818l4.3,3.386V11.744" transform="translate(1070.113 1418.117)" fill="none" stroke="#323232" stroke-linecap="round" stroke-linejoin="round" stroke-width="2"/>
  </g>
</svg>
