<svg xmlns="http://www.w3.org/2000/svg" width="52.71" height="53.635" viewBox="0 0 52.71 53.635">
  <g id="Group_3227" data-name="Group 3227" transform="translate(-934.312 -1328.5)">
    <path id="Path_2299" data-name="Path 2299" d="M40.562,31.933,49.943,41.2a1.317,1.317,0,0,1,.005,1.869l-6.509,5.509c-3.892,3.892-10.919,4.668-15.67,1.888C16.428,43.831,7.421,35.844,1.988,23.879l-.405-.892A12.1,12.1,0,0,1,3.7,9.789l6.119-6.65a1.318,1.318,0,0,1,1.9-.04l8.993,8.993a1.319,1.319,0,0,1,.048,1.814l-2.11,2.344a12.337,12.337,0,0,0,5.194,19.931l.654.222a12.335,12.335,0,0,0,12.7-2.955l1.51-1.509A1.318,1.318,0,0,1,40.562,31.933Z" transform="translate(935 1329)" fill="none" stroke="#323232" stroke-linecap="round" stroke-linejoin="round" stroke-width="2"/>
    <path id="Path_2301" data-name="Path 2301" d="M6.323,5.916,0,0" transform="translate(972.46 1370.048)" fill="none" stroke="#323232" stroke-linecap="round" stroke-width="2"/>
    <path id="Path_2302" data-name="Path 2302" d="M7.323,6.916,1,1" transform="translate(944.524 1340.891)" fill="none" stroke="#323232" stroke-linecap="round" stroke-width="2"/>
    <path id="Path_2300" data-name="Path 2300" d="M35.562,22.74V15.824h-2.78a1.7,1.7,0,0,1-1.7-1.7V2.195A1.7,1.7,0,0,1,32.782.5H49.326a1.7,1.7,0,0,1,1.7,1.695V14.264a1.7,1.7,0,0,1-1.7,1.695h-7.8Z" transform="translate(935 1329)" fill="none" stroke="#323232" stroke-linecap="round" stroke-linejoin="round" stroke-width="2"/>
    <line id="Line_12" data-name="Line 12" x1="8.408" transform="translate(971.731 1337.06)" fill="none" stroke="#323232" stroke-linecap="round" stroke-linejoin="round" stroke-width="2"/>
  </g>
</svg>
